{
    "asset" : {
        "generator" : "Khronos glTF Blender I/O v1.1.46",
        "version" : "2.0"
    },
    "scene" : 0,
    "scenes" : [
        {
            "name" : "Scene",
            "nodes" : [
                0,
                1,
                2,
                3
            ]
        }
    ],
    "nodes" : [
        {
            "mesh" : 0,
            "name" : "Cube",
            "scale" : [
                8.909672737121582,
                8.539073944091797,
                16.842350006103516
            ],
            "translation" : [
                -4.064182281494141,
                7.126300811767578,
                0
            ]
        },
        {
            "mesh" : 1,
            "name" : "Plane",
            "rotation" : [
                0,
                0,
                -0.7071067690849304,
                0.7071067690849304
            ],
            "scale" : [
                14.62014389038086,
                14.62014389038086,
                14.62014389038086
            ],
            "translation" : [
                4.70374059677124,
                17.192134857177734,
                0
            ]
        },
        {
            "mesh" : 2,
            "name" : "Plane.001",
            "rotation" : [
                0,
                0,
                -0.7071067690849304,
                0.7071067690849304
            ],
            "scale" : [
                14.62014389038086,
                14.62014389038086,
                14.62014389038086
            ],
            "translation" : [
                -12.530546188354492,
                17.192134857177734,
                0
            ]
        },
        {
            "mesh" : 3,
            "name" : "Cube.001",
            "scale" : [
                10.28114128112793,
                1.7723183631896973,
                21.81886100769043
            ],
            "translation" : [
                -4.366512298583984,
                23.01851463317871,
                0
            ]
        }
    ],
    "materials" : [
        {
            "doubleSided" : true,
            "emissiveFactor" : [
                0,
                0,
                0
            ],
            "name" : "Material.002",
            "pbrMetallicRoughness" : {
                "baseColorFactor" : [
                    0.17674359679222107,
                    0.2302805483341217,
                    0.8000000715255737,
                    1
                ],
                "metallicFactor" : 0,
                "roughnessFactor" : 0.5
            }
        }
    ],
    "meshes" : [
        {
            "name" : "Cube.001",
            "primitives" : [
                {
                    "attributes" : {
                        "POSITION" : 0,
                        "NORMAL" : 1,
                        "TEXCOORD_0" : 2
                    },
                    "indices" : 3,
                    "material" : 0
                }
            ]
        },
        {
            "name" : "Plane",
            "primitives" : [
                {
                    "attributes" : {
                        "POSITION" : 4,
                        "NORMAL" : 5,
                        "TEXCOORD_0" : 6
                    },
                    "indices" : 7
                }
            ]
        },
        {
            "name" : "Plane.001",
            "primitives" : [
                {
                    "attributes" : {
                        "POSITION" : 8,
                        "NORMAL" : 9,
                        "TEXCOORD_0" : 10
                    },
                    "indices" : 7
                }
            ]
        },
        {
            "name" : "Cube.006",
            "primitives" : [
                {
                    "attributes" : {
                        "POSITION" : 11,
                        "NORMAL" : 12,
                        "TEXCOORD_0" : 13
                    },
                    "indices" : 14
                }
            ]
        }
    ],
    "accessors" : [
        {
            "bufferView" : 0,
            "componentType" : 5126,
            "count" : 173,
            "max" : [
                1,
                1,
                1
            ],
            "min" : [
                -1,
                -1,
                -1
            ],
            "type" : "VEC3"
        },
        {
            "bufferView" : 1,
            "componentType" : 5126,
            "count" : 173,
            "type" : "VEC3"
        },
        {
            "bufferView" : 2,
            "componentType" : 5126,
            "count" : 173,
            "type" : "VEC2"
        },
        {
            "bufferView" : 3,
            "componentType" : 5123,
            "count" : 276,
            "type" : "SCALAR"
        },
        {
            "bufferView" : 4,
            "componentType" : 5126,
            "count" : 4,
            "max" : [
                0.11371445655822754,
                3.019044925167691e-08,
                1
            ],
            "min" : [
                -0.30932295322418213,
                -3.88926935102063e-08,
                -1
            ],
            "type" : "VEC3"
        },
        {
            "bufferView" : 5,
            "componentType" : 5126,
            "count" : 4,
            "type" : "VEC3"
        },
        {
            "bufferView" : 6,
            "componentType" : 5126,
            "count" : 4,
            "type" : "VEC2"
        },
        {
            "bufferView" : 7,
            "componentType" : 5123,
            "count" : 6,
            "type" : "SCALAR"
        },
        {
            "bufferView" : 8,
            "componentType" : 5126,
            "count" : 4,
            "max" : [
                0.11371445655822754,
                3.019044925167691e-08,
                1
            ],
            "min" : [
                -0.30932295322418213,
                -3.88926935102063e-08,
                -1
            ],
            "type" : "VEC3"
        },
        {
            "bufferView" : 9,
            "componentType" : 5126,
            "count" : 4,
            "type" : "VEC3"
        },
        {
            "bufferView" : 10,
            "componentType" : 5126,
            "count" : 4,
            "type" : "VEC2"
        },
        {
            "bufferView" : 11,
            "componentType" : 5126,
            "count" : 36,
            "max" : [
                1,
                1,
                1
            ],
            "min" : [
                -1,
                -6.107917308807373,
                -1
            ],
            "type" : "VEC3"
        },
        {
            "bufferView" : 12,
            "componentType" : 5126,
            "count" : 36,
            "type" : "VEC3"
        },
        {
            "bufferView" : 13,
            "componentType" : 5126,
            "count" : 36,
            "type" : "VEC2"
        },
        {
            "bufferView" : 14,
            "componentType" : 5123,
            "count" : 60,
            "type" : "SCALAR"
        }
    ],
    "bufferViews" : [
        {
            "buffer" : 0,
            "byteLength" : 2076,
            "byteOffset" : 0
        },
        {
            "buffer" : 0,
            "byteLength" : 2076,
            "byteOffset" : 2076
        },
        {
            "buffer" : 0,
            "byteLength" : 1384,
            "byteOffset" : 4152
        },
        {
            "buffer" : 0,
            "byteLength" : 552,
            "byteOffset" : 5536
        },
        {
            "buffer" : 0,
            "byteLength" : 48,
            "byteOffset" : 6088
        },
        {
            "buffer" : 0,
            "byteLength" : 48,
            "byteOffset" : 6136
        },
        {
            "buffer" : 0,
            "byteLength" : 32,
            "byteOffset" : 6184
        },
        {
            "buffer" : 0,
            "byteLength" : 12,
            "byteOffset" : 6216
        },
        {
            "buffer" : 0,
            "byteLength" : 48,
            "byteOffset" : 6228
        },
        {
            "buffer" : 0,
            "byteLength" : 48,
            "byteOffset" : 6276
        },
        {
            "buffer" : 0,
            "byteLength" : 32,
            "byteOffset" : 6324
        },
        {
            "buffer" : 0,
            "byteLength" : 432,
            "byteOffset" : 6356
        },
        {
            "buffer" : 0,
            "byteLength" : 432,
            "byteOffset" : 6788
        },
        {
            "buffer" : 0,
            "byteLength" : 288,
            "byteOffset" : 7220
        },
        {
            "buffer" : 0,
            "byteLength" : 120,
            "byteOffset" : 7508
        }
    ],
    "buffers" : [
        {
            "byteLength" : 7628,
            "uri" : "house.bin"
        }
    ]
}
