{
    "asset" : {
        "generator" : "Khronos glTF Blender I/O v1.1.46",
        "version" : "2.0"
    },
    "scene" : 0,
    "scenes" : [
        {
            "name" : "Scene",
            "nodes" : [
                0,
                1,
                2,
                3,
                4,
                5,
                6,
                7,
                8,
                9,
                10
            ]
        }
    ],
    "nodes" : [
        {
            "mesh" : 0,
            "name" : "Cylinder",
            "scale" : [
                35.78900909423828,
                1.3658556938171387,
                35.78900909423828
            ],
            "translation" : [
                -9.39122200012207,
                -1.4285602569580078,
                -7.191211700439453
            ]
        },
        {
            "name" : "Light",
            "rotation" : [
                0.16907575726509094,
                0.7558803558349609,
                -0.27217137813568115,
                0.570947527885437
            ],
            "translation" : [
                4.076245307922363,
                5.903861999511719,
                -1.0054539442062378
            ]
        },
        {
            "name" : "Camera",
            "rotation" : [
                0.483536034822464,
                0.33687159419059753,
                -0.20870360732078552,
                0.7804827094078064
            ],
            "translation" : [
                7.358891487121582,
                4.958309173583984,
                6.925790786743164
            ]
        },
        {
            "mesh" : 1,
            "name" : "Cube.292",
            "rotation" : [
                0,
                0.7402660250663757,
                0,
                0.6723139882087708
            ],
            "scale" : [
                2.683290958404541,
                2.571678638458252,
                5.072344779968262
            ],
            "translation" : [
                0.6716833114624023,
                2.67716121673584,
                -0.3987159729003906
            ]
        },
        {
            "mesh" : 2,
            "name" : "Cube.293",
            "rotation" : [
                0,
                0.7402663826942444,
                0,
                0.6723138093948364
            ],
            "scale" : [
                3.0963311195373535,
                0.5337621569633484,
                6.571102142333984
            ],
            "translation" : [
                0.6804208755493164,
                7.463357448577881,
                -0.3080787658691406
            ]
        },
        {
            "mesh" : 3,
            "name" : "Plane.062",
            "rotation" : [
                -0.5234472155570984,
                0.5234472155570984,
                -0.4753977656364441,
                0.4753977656364441
            ],
            "scale" : [
                4.403092861175537,
                4.403093338012695,
                4.403090953826904
            ],
            "translation" : [
                0.41821956634521484,
                5.708649158477783,
                -3.027120590209961
            ]
        },
        {
            "mesh" : 4,
            "name" : "Plane.063",
            "rotation" : [
                0.4753977656364441,
                -0.475397527217865,
                -0.5234472155570984,
                0.5234475135803223
            ],
            "scale" : [
                4.4030938148498535,
                4.403092861175537,
                4.403092861175537
            ],
            "translation" : [
                0.8986539840698242,
                5.711452484130859,
                1.954986572265625
            ]
        },
        {
            "mesh" : 5,
            "name" : "Cube",
            "rotation" : [
                0,
                0.0061086141504347324,
                0,
                0.9999813437461853
            ],
            "scale" : [
                1,
                1,
                0.11778855323791504
            ],
            "translation" : [
                -1.8784915208816528,
                1.226140022277832,
                -3.630167245864868
            ]
        },
        {
            "mesh" : 6,
            "name" : "Sphere",
            "scale" : [
                0.08536010980606079,
                0.08536010980606079,
                0.08536010980606079
            ],
            "translation" : [
                -1.7443859577178955,
                1.0959547758102417,
                -2.993339776992798
            ]
        },
        {
            "mesh" : 7,
            "name" : "Sphere.001",
            "scale" : [
                0.08536010980606079,
                0.08536010980606079,
                0.08536010980606079
            ],
            "translation" : [
                -2.3083622455596924,
                1.0959547758102417,
                -2.937272071838379
            ]
        },
        {
            "mesh" : 8,
            "name" : "Cube.001",
            "rotation" : [
                0,
                0.7402660250663757,
                0,
                0.6723139882087708
            ],
            "scale" : [
                0.05168147385120392,
                0.8943567872047424,
                1.9348682165145874
            ],
            "translation" : [
                2.3535103797912598,
                3.5295557975769043,
                -3.1268539428710938
            ]
        }
    ],
    "materials" : [
        {
            "doubleSided" : true,
            "emissiveFactor" : [
                0,
                0,
                0
            ],
            "name" : "Material.007",
            "pbrMetallicRoughness" : {
                "baseColorFactor" : [
                    0.11608214676380157,
                    0.006028252188116312,
                    0.8000000715255737,
                    1
                ],
                "metallicFactor" : 0,
                "roughnessFactor" : 0.5
            }
        },
        {
            "doubleSided" : true,
            "emissiveFactor" : [
                0,
                0,
                0
            ],
            "name" : "Material.001",
            "pbrMetallicRoughness" : {
                "baseColorFactor" : [
                    0.8000000715255737,
                    0.16908328235149384,
                    0.08224490284919739,
                    1
                ],
                "metallicFactor" : 0,
                "roughnessFactor" : 0.5
            }
        },
        {
            "doubleSided" : true,
            "emissiveFactor" : [
                0,
                0,
                0
            ],
            "name" : "Material.002",
            "pbrMetallicRoughness" : {
                "baseColorTexture" : {
                    "index" : 0,
                    "texCoord" : 0
                },
                "metallicFactor" : 0,
                "roughnessFactor" : 1
            }
        },
        {
            "doubleSided" : true,
            "emissiveFactor" : [
                0,
                0,
                0
            ],
            "name" : "Material.003",
            "pbrMetallicRoughness" : {
                "baseColorTexture" : {
                    "index" : 1,
                    "texCoord" : 0
                },
                "metallicFactor" : 0,
                "roughnessFactor" : 0.5
            }
        }
    ],
    "meshes" : [
        {
            "name" : "Cylinder",
            "primitives" : [
                {
                    "attributes" : {
                        "POSITION" : 0,
                        "NORMAL" : 1,
                        "TEXCOORD_0" : 2
                    },
                    "indices" : 3
                }
            ]
        },
        {
            "name" : "Cube.584",
            "primitives" : [
                {
                    "attributes" : {
                        "POSITION" : 4,
                        "NORMAL" : 5,
                        "TEXCOORD_0" : 6
                    },
                    "indices" : 7,
                    "material" : 0
                }
            ]
        },
        {
            "name" : "Cube.585",
            "primitives" : [
                {
                    "attributes" : {
                        "POSITION" : 8,
                        "NORMAL" : 9,
                        "TEXCOORD_0" : 10
                    },
                    "indices" : 11,
                    "material" : 1
                }
            ]
        },
        {
            "name" : "Plane.126",
            "primitives" : [
                {
                    "attributes" : {
                        "POSITION" : 12,
                        "NORMAL" : 13,
                        "TEXCOORD_0" : 14
                    },
                    "indices" : 15
                }
            ]
        },
        {
            "name" : "Plane.127",
            "primitives" : [
                {
                    "attributes" : {
                        "POSITION" : 16,
                        "NORMAL" : 17,
                        "TEXCOORD_0" : 18
                    },
                    "indices" : 15
                }
            ]
        },
        {
            "name" : "Cube.001",
            "primitives" : [
                {
                    "attributes" : {
                        "POSITION" : 19,
                        "NORMAL" : 20,
                        "TEXCOORD_0" : 21
                    },
                    "indices" : 22,
                    "material" : 2
                }
            ]
        },
        {
            "name" : "Sphere",
            "primitives" : [
                {
                    "attributes" : {
                        "POSITION" : 23,
                        "NORMAL" : 24,
                        "TEXCOORD_0" : 25
                    },
                    "indices" : 26
                }
            ]
        },
        {
            "name" : "Sphere.001",
            "primitives" : [
                {
                    "attributes" : {
                        "POSITION" : 27,
                        "NORMAL" : 28,
                        "TEXCOORD_0" : 29
                    },
                    "indices" : 30
                }
            ]
        },
        {
            "name" : "Cube.002",
            "primitives" : [
                {
                    "attributes" : {
                        "POSITION" : 31,
                        "NORMAL" : 32,
                        "TEXCOORD_0" : 33
                    },
                    "indices" : 34,
                    "material" : 3
                }
            ]
        }
    ],
    "textures" : [
        {
            "source" : 0
        },
        {
            "source" : 0
        }
    ],
    "images" : [
        {
            "mimeType" : "image/png",
            "name" : "StoneTile",
            "uri" : "StoneTile.png"
        }
    ],
    "accessors" : [
        {
            "bufferView" : 0,
            "componentType" : 5126,
            "count" : 192,
            "max" : [
                1,
                1,
                1
            ],
            "min" : [
                -1,
                -1,
                -1
            ],
            "type" : "VEC3"
        },
        {
            "bufferView" : 1,
            "componentType" : 5126,
            "count" : 192,
            "type" : "VEC3"
        },
        {
            "bufferView" : 2,
            "componentType" : 5126,
            "count" : 192,
            "type" : "VEC2"
        },
        {
            "bufferView" : 3,
            "componentType" : 5123,
            "count" : 372,
            "type" : "SCALAR"
        },
        {
            "bufferView" : 4,
            "componentType" : 5126,
            "count" : 380,
            "max" : [
                1,
                1,
                1
            ],
            "min" : [
                -1,
                -1,
                -1
            ],
            "type" : "VEC3"
        },
        {
            "bufferView" : 5,
            "componentType" : 5126,
            "count" : 380,
            "type" : "VEC3"
        },
        {
            "bufferView" : 6,
            "componentType" : 5126,
            "count" : 380,
            "type" : "VEC2"
        },
        {
            "bufferView" : 7,
            "componentType" : 5123,
            "count" : 564,
            "type" : "SCALAR"
        },
        {
            "bufferView" : 8,
            "componentType" : 5126,
            "count" : 36,
            "max" : [
                1,
                1,
                1
            ],
            "min" : [
                -1,
                -6.107917308807373,
                -1
            ],
            "type" : "VEC3"
        },
        {
            "bufferView" : 9,
            "componentType" : 5126,
            "count" : 36,
            "type" : "VEC3"
        },
        {
            "bufferView" : 10,
            "componentType" : 5126,
            "count" : 36,
            "type" : "VEC2"
        },
        {
            "bufferView" : 11,
            "componentType" : 5123,
            "count" : 60,
            "type" : "SCALAR"
        },
        {
            "bufferView" : 12,
            "componentType" : 5126,
            "count" : 6,
            "max" : [
                0.11371445655822754,
                3.019044925167691e-08,
                1
            ],
            "min" : [
                -0.30932295322418213,
                -3.88926935102063e-08,
                -1
            ],
            "type" : "VEC3"
        },
        {
            "bufferView" : 13,
            "componentType" : 5126,
            "count" : 6,
            "type" : "VEC3"
        },
        {
            "bufferView" : 14,
            "componentType" : 5126,
            "count" : 6,
            "type" : "VEC2"
        },
        {
            "bufferView" : 15,
            "componentType" : 5123,
            "count" : 6,
            "type" : "SCALAR"
        },
        {
            "bufferView" : 16,
            "componentType" : 5126,
            "count" : 6,
            "max" : [
                0.11371445655822754,
                3.019044925167691e-08,
                1
            ],
            "min" : [
                -0.30932295322418213,
                -3.88926935102063e-08,
                -1
            ],
            "type" : "VEC3"
        },
        {
            "bufferView" : 17,
            "componentType" : 5126,
            "count" : 6,
            "type" : "VEC3"
        },
        {
            "bufferView" : 18,
            "componentType" : 5126,
            "count" : 6,
            "type" : "VEC2"
        },
        {
            "bufferView" : 19,
            "componentType" : 5126,
            "count" : 40,
            "max" : [
                1.131129264831543,
                1.0008907318115234,
                10.18045425415039
            ],
            "min" : [
                -1.1552503108978271,
                -1.096973180770874,
                6.5803751945495605
            ],
            "type" : "VEC3"
        },
        {
            "bufferView" : 20,
            "componentType" : 5126,
            "count" : 40,
            "type" : "VEC3"
        },
        {
            "bufferView" : 21,
            "componentType" : 5126,
            "count" : 40,
            "type" : "VEC2"
        },
        {
            "bufferView" : 22,
            "componentType" : 5123,
            "count" : 60,
            "type" : "SCALAR"
        },
        {
            "bufferView" : 23,
            "componentType" : 5126,
            "count" : 1984,
            "max" : [
                1.3857481479644775,
                1,
                1.0000003576278687
            ],
            "min" : [
                -0.614251971244812,
                -1,
                -1
            ],
            "type" : "VEC3"
        },
        {
            "bufferView" : 24,
            "componentType" : 5126,
            "count" : 1984,
            "type" : "VEC3"
        },
        {
            "bufferView" : 25,
            "componentType" : 5126,
            "count" : 1984,
            "type" : "VEC2"
        },
        {
            "bufferView" : 26,
            "componentType" : 5123,
            "count" : 2880,
            "type" : "SCALAR"
        },
        {
            "bufferView" : 27,
            "componentType" : 5126,
            "count" : 1984,
            "max" : [
                2.5319881439208984,
                1,
                1.0000003576278687
            ],
            "min" : [
                0.5319879055023193,
                -1,
                -1
            ],
            "type" : "VEC3"
        },
        {
            "bufferView" : 28,
            "componentType" : 5126,
            "count" : 1984,
            "type" : "VEC3"
        },
        {
            "bufferView" : 29,
            "componentType" : 5126,
            "count" : 1984,
            "type" : "VEC2"
        },
        {
            "bufferView" : 30,
            "componentType" : 5123,
            "count" : 2880,
            "type" : "SCALAR"
        },
        {
            "bufferView" : 31,
            "componentType" : 5126,
            "count" : 24,
            "max" : [
                1,
                1,
                1
            ],
            "min" : [
                -1,
                -1,
                -1
            ],
            "type" : "VEC3"
        },
        {
            "bufferView" : 32,
            "componentType" : 5126,
            "count" : 24,
            "type" : "VEC3"
        },
        {
            "bufferView" : 33,
            "componentType" : 5126,
            "count" : 24,
            "type" : "VEC2"
        },
        {
            "bufferView" : 34,
            "componentType" : 5123,
            "count" : 36,
            "type" : "SCALAR"
        }
    ],
    "bufferViews" : [
        {
            "buffer" : 0,
            "byteLength" : 2304,
            "byteOffset" : 0
        },
        {
            "buffer" : 0,
            "byteLength" : 2304,
            "byteOffset" : 2304
        },
        {
            "buffer" : 0,
            "byteLength" : 1536,
            "byteOffset" : 4608
        },
        {
            "buffer" : 0,
            "byteLength" : 744,
            "byteOffset" : 6144
        },
        {
            "buffer" : 0,
            "byteLength" : 4560,
            "byteOffset" : 6888
        },
        {
            "buffer" : 0,
            "byteLength" : 4560,
            "byteOffset" : 11448
        },
        {
            "buffer" : 0,
            "byteLength" : 3040,
            "byteOffset" : 16008
        },
        {
            "buffer" : 0,
            "byteLength" : 1128,
            "byteOffset" : 19048
        },
        {
            "buffer" : 0,
            "byteLength" : 432,
            "byteOffset" : 20176
        },
        {
            "buffer" : 0,
            "byteLength" : 432,
            "byteOffset" : 20608
        },
        {
            "buffer" : 0,
            "byteLength" : 288,
            "byteOffset" : 21040
        },
        {
            "buffer" : 0,
            "byteLength" : 120,
            "byteOffset" : 21328
        },
        {
            "buffer" : 0,
            "byteLength" : 72,
            "byteOffset" : 21448
        },
        {
            "buffer" : 0,
            "byteLength" : 72,
            "byteOffset" : 21520
        },
        {
            "buffer" : 0,
            "byteLength" : 48,
            "byteOffset" : 21592
        },
        {
            "buffer" : 0,
            "byteLength" : 12,
            "byteOffset" : 21640
        },
        {
            "buffer" : 0,
            "byteLength" : 72,
            "byteOffset" : 21652
        },
        {
            "buffer" : 0,
            "byteLength" : 72,
            "byteOffset" : 21724
        },
        {
            "buffer" : 0,
            "byteLength" : 48,
            "byteOffset" : 21796
        },
        {
            "buffer" : 0,
            "byteLength" : 480,
            "byteOffset" : 21844
        },
        {
            "buffer" : 0,
            "byteLength" : 480,
            "byteOffset" : 22324
        },
        {
            "buffer" : 0,
            "byteLength" : 320,
            "byteOffset" : 22804
        },
        {
            "buffer" : 0,
            "byteLength" : 120,
            "byteOffset" : 23124
        },
        {
            "buffer" : 0,
            "byteLength" : 23808,
            "byteOffset" : 23244
        },
        {
            "buffer" : 0,
            "byteLength" : 23808,
            "byteOffset" : 47052
        },
        {
            "buffer" : 0,
            "byteLength" : 15872,
            "byteOffset" : 70860
        },
        {
            "buffer" : 0,
            "byteLength" : 5760,
            "byteOffset" : 86732
        },
        {
            "buffer" : 0,
            "byteLength" : 23808,
            "byteOffset" : 92492
        },
        {
            "buffer" : 0,
            "byteLength" : 23808,
            "byteOffset" : 116300
        },
        {
            "buffer" : 0,
            "byteLength" : 15872,
            "byteOffset" : 140108
        },
        {
            "buffer" : 0,
            "byteLength" : 5760,
            "byteOffset" : 155980
        },
        {
            "buffer" : 0,
            "byteLength" : 288,
            "byteOffset" : 161740
        },
        {
            "buffer" : 0,
            "byteLength" : 288,
            "byteOffset" : 162028
        },
        {
            "buffer" : 0,
            "byteLength" : 192,
            "byteOffset" : 162316
        },
        {
            "buffer" : 0,
            "byteLength" : 72,
            "byteOffset" : 162508
        }
    ],
    "buffers" : [
        {
            "byteLength" : 162580,
            "uri" : "House.bin"
        }
    ]
}
