{
    "asset" : {
        "generator" : "Khronos glTF Blender I/O v1.1.46",
        "version" : "2.0"
    },
    "scene" : 0,
    "scenes" : [
        {
            "name" : "Scene",
            "nodes" : [
                0
            ]
        }
    ],
    "nodes" : [
        {
            "mesh" : 0,
            "name" : "Landscape.001",
            "scale" : [
                13.169249534606934,
                13.169249534606934,
                13.169249534606934
            ],
            "translation" : [
                0,
                -4.827780246734619,
                0
            ]
        }
    ],
    "materials" : [
        {
            "doubleSided" : true,
            "emissiveFactor" : [
                0,
                0,
                0
            ],
            "name" : "Material.002",
            "pbrMetallicRoughness" : {
                "baseColorFactor" : [
                    0.800000011920929,
                    0.800000011920929,
                    0.800000011920929,
                    1
                ],
                "metallicFactor" : 0,
                "roughnessFactor" : 1
            }
        }
    ],
    "meshes" : [
        {
            "name" : "Landscape.001",
            "primitives" : [
                {
                    "attributes" : {
                        "POSITION" : 0,
                        "NORMAL" : 1
                    },
                    "indices" : 2,
                    "material" : 0
                }
            ]
        }
    ],
    "accessors" : [
        {
            "bufferView" : 0,
            "componentType" : 5126,
            "count" : 9438,
            "max" : [
                1.000128149986267,
                0.5983060002326965,
                1.000773549079895
            ],
            "min" : [
                -1.000027060508728,
                -0.04315628483891487,
                -1.0000511407852173
            ],
            "type" : "VEC3"
        },
        {
            "bufferView" : 1,
            "componentType" : 5126,
            "count" : 9438,
            "type" : "VEC3"
        },
        {
            "bufferView" : 2,
            "componentType" : 5123,
            "count" : 10785,
            "type" : "SCALAR"
        }
    ],
    "bufferViews" : [
        {
            "buffer" : 0,
            "byteLength" : 113256,
            "byteOffset" : 0
        },
        {
            "buffer" : 0,
            "byteLength" : 113256,
            "byteOffset" : 113256
        },
        {
            "buffer" : 0,
            "byteLength" : 21570,
            "byteOffset" : 226512
        }
    ],
    "buffers" : [
        {
            "byteLength" : 248084,
            "uri" : "iceStage.bin"
        }
    ]
}
