{
    "asset" : {
        "generator" : "Khronos glTF Blender I/O v1.1.46",
        "version" : "2.0"
    },
    "scene" : 0,
    "scenes" : [
        {
            "name" : "Scene",
            "nodes" : [
                0,
                1
            ]
        }
    ],
    "nodes" : [
        {
            "mesh" : 0,
            "name" : "Sphere.001",
            "rotation" : [
                0,
                -0.9680659770965576,
                0,
                0.2506955862045288
            ],
            "scale" : [
                4.095846652984619,
                4.095846652984619,
                4.095846652984619
            ],
            "translation" : [
                -8.648504257202148,
                0.44315969944000244,
                -5.8712158203125
            ]
        },
        {
            "mesh" : 1,
            "name" : "Cylinder",
            "scale" : [
                9.051965713500977,
                0.20795711874961853,
                9.051965713500977
            ],
            "translation" : [
                -7.437029838562012,
                0.26359692215919495,
                -4.851258277893066
            ]
        }
    ],
    "meshes" : [
        {
            "name" : "Sphere.001",
            "primitives" : [
                {
                    "attributes" : {
                        "POSITION" : 0,
                        "NORMAL" : 1,
                        "TEXCOORD_0" : 2
                    },
                    "indices" : 3
                }
            ]
        },
        {
            "name" : "Cylinder.001",
            "primitives" : [
                {
                    "attributes" : {
                        "POSITION" : 4,
                        "NORMAL" : 5,
                        "TEXCOORD_0" : 6
                    },
                    "indices" : 7
                }
            ]
        }
    ],
    "accessors" : [
        {
            "bufferView" : 0,
            "componentType" : 5126,
            "count" : 1118,
            "max" : [
                1.0000003576278687,
                1,
                1.0000004768371582
            ],
            "min" : [
                -1.0000001192092896,
                -0.0009798738174140453,
                -1
            ],
            "type" : "VEC3"
        },
        {
            "bufferView" : 1,
            "componentType" : 5126,
            "count" : 1118,
            "type" : "VEC3"
        },
        {
            "bufferView" : 2,
            "componentType" : 5126,
            "count" : 1118,
            "type" : "VEC2"
        },
        {
            "bufferView" : 3,
            "componentType" : 5123,
            "count" : 1632,
            "type" : "SCALAR"
        },
        {
            "bufferView" : 4,
            "componentType" : 5126,
            "count" : 192,
            "max" : [
                1,
                1,
                1
            ],
            "min" : [
                -1,
                -1,
                -1
            ],
            "type" : "VEC3"
        },
        {
            "bufferView" : 5,
            "componentType" : 5126,
            "count" : 192,
            "type" : "VEC3"
        },
        {
            "bufferView" : 6,
            "componentType" : 5126,
            "count" : 192,
            "type" : "VEC2"
        },
        {
            "bufferView" : 7,
            "componentType" : 5123,
            "count" : 372,
            "type" : "SCALAR"
        }
    ],
    "bufferViews" : [
        {
            "buffer" : 0,
            "byteLength" : 13416,
            "byteOffset" : 0
        },
        {
            "buffer" : 0,
            "byteLength" : 13416,
            "byteOffset" : 13416
        },
        {
            "buffer" : 0,
            "byteLength" : 8944,
            "byteOffset" : 26832
        },
        {
            "buffer" : 0,
            "byteLength" : 3264,
            "byteOffset" : 35776
        },
        {
            "buffer" : 0,
            "byteLength" : 2304,
            "byteOffset" : 39040
        },
        {
            "buffer" : 0,
            "byteLength" : 2304,
            "byteOffset" : 41344
        },
        {
            "buffer" : 0,
            "byteLength" : 1536,
            "byteOffset" : 43648
        },
        {
            "buffer" : 0,
            "byteLength" : 744,
            "byteOffset" : 45184
        }
    ],
    "buffers" : [
        {
            "byteLength" : 45928,
            "uri" : "Kamakura.bin"
        }
    ]
}
