{
    "asset" : {
        "generator" : "Khronos glTF Blender I/O v1.1.46",
        "version" : "2.0"
    },
    "scene" : 0,
    "scenes" : [
        {
            "name" : "Scene",
            "nodes" : [
                0,
                1,
                2,
                3
            ]
        }
    ],
    "nodes" : [
        {
            "mesh" : 0,
            "name" : "Cube"
        },
        {
            "name" : "Light",
            "rotation" : [
                0.16907575726509094,
                0.7558803558349609,
                -0.27217137813568115,
                0.570947527885437
            ],
            "translation" : [
                4.076245307922363,
                5.903861999511719,
                -1.0054539442062378
            ]
        },
        {
            "name" : "Camera",
            "rotation" : [
                0.483536034822464,
                0.33687159419059753,
                -0.20870360732078552,
                0.7804827094078064
            ],
            "translation" : [
                7.358891487121582,
                4.958309173583984,
                6.925790786743164
            ]
        },
        {
            "mesh" : 1,
            "name" : "node-0",
            "rotation" : [
                0.7071068286895752,
                0,
                0,
                0.7071067094802856
            ]
        }
    ],
    "materials" : [
        {
            "doubleSided" : true,
            "emissiveFactor" : [
                0,
                0,
                0
            ],
            "name" : "Material",
            "pbrMetallicRoughness" : {
                "baseColorFactor" : [
                    0.800000011920929,
                    0.800000011920929,
                    0.800000011920929,
                    1
                ],
                "metallicFactor" : 0,
                "roughnessFactor" : 0.4000000059604645
            }
        },
        {
            "doubleSided" : true,
            "emissiveFactor" : [
                0,
                0,
                0
            ],
            "name" : "07___Default",
            "pbrMetallicRoughness" : {
                "baseColorFactor" : [
                    1,
                    1,
                    1,
                    1
                ],
                "metallicFactor" : 0,
                "roughnessFactor" : 0.9699476361274719
            }
        },
        {
            "doubleSided" : true,
            "emissiveFactor" : [
                0,
                0,
                0
            ],
            "name" : "19___Default",
            "pbrMetallicRoughness" : {
                "baseColorFactor" : [
                    0.10589999705553055,
                    0.05490000173449516,
                    0.027499999850988388,
                    1
                ],
                "metallicFactor" : 0,
                "roughnessFactor" : 0.9699476361274719
            }
        },
        {
            "doubleSided" : true,
            "emissiveFactor" : [
                0,
                0,
                0
            ],
            "name" : "08___Default",
            "pbrMetallicRoughness" : {
                "baseColorFactor" : [
                    0.25099998712539673,
                    0.25099998712539673,
                    0.25099998712539673,
                    1
                ],
                "metallicFactor" : 0,
                "roughnessFactor" : 0.9699476361274719
            }
        },
        {
            "doubleSided" : true,
            "emissiveFactor" : [
                0,
                0,
                0
            ],
            "name" : "02___Default",
            "pbrMetallicRoughness" : {
                "baseColorFactor" : [
                    0.058800000697374344,
                    0.03920000046491623,
                    0.027499999850988388,
                    1
                ],
                "metallicFactor" : 0,
                "roughnessFactor" : 0.9699476361274719
            }
        },
        {
            "doubleSided" : true,
            "emissiveFactor" : [
                0,
                0,
                0
            ],
            "name" : "03___Default",
            "pbrMetallicRoughness" : {
                "baseColorFactor" : [
                    0.21960000693798065,
                    0.10980000346899033,
                    0.05490000173449516,
                    1
                ],
                "metallicFactor" : 0,
                "roughnessFactor" : 0.9699476361274719
            }
        },
        {
            "doubleSided" : true,
            "emissiveFactor" : [
                0,
                0,
                0
            ],
            "name" : "13___Default",
            "pbrMetallicRoughness" : {
                "baseColorFactor" : [
                    0.3450999855995178,
                    0.49410000443458557,
                    0.45489999651908875,
                    1
                ],
                "metallicFactor" : 0,
                "roughnessFactor" : 0.9699476361274719
            }
        },
        {
            "doubleSided" : true,
            "emissiveFactor" : [
                0,
                0,
                0
            ],
            "name" : "01___Default",
            "pbrMetallicRoughness" : {
                "baseColorFactor" : [
                    0.5724999904632568,
                    0.43529999256134033,
                    0.29019999504089355,
                    1
                ],
                "metallicFactor" : 0,
                "roughnessFactor" : 0.9699476361274719
            }
        }
    ],
    "meshes" : [
        {
            "name" : "Cube",
            "primitives" : [
                {
                    "attributes" : {
                        "POSITION" : 0,
                        "NORMAL" : 1,
                        "TEXCOORD_0" : 2
                    },
                    "indices" : 3,
                    "material" : 0
                }
            ]
        },
        {
            "name" : "buffer-0-mesh-0",
            "primitives" : [
                {
                    "attributes" : {
                        "POSITION" : 4,
                        "NORMAL" : 5,
                        "TEXCOORD_0" : 6
                    },
                    "indices" : 7,
                    "material" : 1
                },
                {
                    "attributes" : {
                        "POSITION" : 8,
                        "NORMAL" : 9,
                        "TEXCOORD_0" : 10
                    },
                    "indices" : 11,
                    "material" : 2
                },
                {
                    "attributes" : {
                        "POSITION" : 12,
                        "NORMAL" : 13,
                        "TEXCOORD_0" : 14
                    },
                    "indices" : 15,
                    "material" : 3
                },
                {
                    "attributes" : {
                        "POSITION" : 16,
                        "NORMAL" : 17,
                        "TEXCOORD_0" : 18
                    },
                    "indices" : 19,
                    "material" : 4
                },
                {
                    "attributes" : {
                        "POSITION" : 20,
                        "NORMAL" : 21,
                        "TEXCOORD_0" : 22
                    },
                    "indices" : 23,
                    "material" : 5
                },
                {
                    "attributes" : {
                        "POSITION" : 24,
                        "NORMAL" : 25,
                        "TEXCOORD_0" : 26
                    },
                    "indices" : 27,
                    "material" : 6
                },
                {
                    "attributes" : {
                        "POSITION" : 28,
                        "NORMAL" : 29,
                        "TEXCOORD_0" : 30
                    },
                    "indices" : 31,
                    "material" : 7
                }
            ]
        }
    ],
    "accessors" : [
        {
            "bufferView" : 0,
            "componentType" : 5126,
            "count" : 24,
            "max" : [
                1,
                1,
                1
            ],
            "min" : [
                -1,
                -1,
                -1
            ],
            "type" : "VEC3"
        },
        {
            "bufferView" : 1,
            "componentType" : 5126,
            "count" : 24,
            "type" : "VEC3"
        },
        {
            "bufferView" : 2,
            "componentType" : 5126,
            "count" : 24,
            "type" : "VEC2"
        },
        {
            "bufferView" : 3,
            "componentType" : 5123,
            "count" : 36,
            "type" : "SCALAR"
        },
        {
            "bufferView" : 4,
            "componentType" : 5126,
            "count" : 29490,
            "max" : [
                52.79499816894531,
                55.27450180053711,
                5.219799995422363
            ],
            "min" : [
                -54.21160125732422,
                -51.889400482177734,
                -54.136600494384766
            ],
            "type" : "VEC3"
        },
        {
            "bufferView" : 5,
            "componentType" : 5126,
            "count" : 29490,
            "type" : "VEC3"
        },
        {
            "bufferView" : 6,
            "componentType" : 5126,
            "count" : 29490,
            "type" : "VEC2"
        },
        {
            "bufferView" : 7,
            "componentType" : 5123,
            "count" : 29490,
            "type" : "SCALAR"
        },
        {
            "bufferView" : 8,
            "componentType" : 5126,
            "count" : 360,
            "max" : [
                47.71329879760742,
                25.43079948425293,
                -1.9256999492645264
            ],
            "min" : [
                -48.513099670410156,
                -40.84280014038086,
                -8.968700408935547
            ],
            "type" : "VEC3"
        },
        {
            "bufferView" : 9,
            "componentType" : 5126,
            "count" : 360,
            "type" : "VEC3"
        },
        {
            "bufferView" : 10,
            "componentType" : 5126,
            "count" : 360,
            "type" : "VEC2"
        },
        {
            "bufferView" : 11,
            "componentType" : 5123,
            "count" : 360,
            "type" : "SCALAR"
        },
        {
            "bufferView" : 12,
            "componentType" : 5126,
            "count" : 762,
            "max" : [
                23.97369956970215,
                4.500699996948242,
                0.27489998936653137
            ],
            "min" : [
                -23.58060073852539,
                -8.576499938964844,
                -11.94729995727539
            ],
            "type" : "VEC3"
        },
        {
            "bufferView" : 13,
            "componentType" : 5126,
            "count" : 762,
            "type" : "VEC3"
        },
        {
            "bufferView" : 14,
            "componentType" : 5126,
            "count" : 762,
            "type" : "VEC2"
        },
        {
            "bufferView" : 15,
            "componentType" : 5123,
            "count" : 762,
            "type" : "SCALAR"
        },
        {
            "bufferView" : 16,
            "componentType" : 5126,
            "count" : 238464,
            "max" : [
                55.20880126953125,
                28.897199630737305,
                -3.2607998847961426
            ],
            "min" : [
                -59.02330017089844,
                -48.686798095703125,
                -46.21649932861328
            ],
            "type" : "VEC3"
        },
        {
            "bufferView" : 17,
            "componentType" : 5126,
            "count" : 238464,
            "type" : "VEC3"
        },
        {
            "bufferView" : 18,
            "componentType" : 5126,
            "count" : 238464,
            "type" : "VEC2"
        },
        {
            "bufferView" : 19,
            "componentType" : 5125,
            "count" : 238464,
            "type" : "SCALAR"
        },
        {
            "bufferView" : 20,
            "componentType" : 5126,
            "count" : 1158,
            "max" : [
                5.161900043487549,
                4.44350004196167,
                -8.285400390625
            ],
            "min" : [
                -11.447199821472168,
                -12.668499946594238,
                -24.894100189208984
            ],
            "type" : "VEC3"
        },
        {
            "bufferView" : 21,
            "componentType" : 5126,
            "count" : 1158,
            "type" : "VEC3"
        },
        {
            "bufferView" : 22,
            "componentType" : 5126,
            "count" : 1158,
            "type" : "VEC2"
        },
        {
            "bufferView" : 23,
            "componentType" : 5123,
            "count" : 1158,
            "type" : "SCALAR"
        },
        {
            "bufferView" : 24,
            "componentType" : 5126,
            "count" : 21,
            "max" : [
                -1.3828999996185303,
                1.3086999654769897,
                -14.757200241088867
            ],
            "min" : [
                -5.144499778747559,
                1.284500002861023,
                -22.240800857543945
            ],
            "type" : "VEC3"
        },
        {
            "bufferView" : 25,
            "componentType" : 5126,
            "count" : 21,
            "type" : "VEC3"
        },
        {
            "bufferView" : 26,
            "componentType" : 5126,
            "count" : 21,
            "type" : "VEC2"
        },
        {
            "bufferView" : 27,
            "componentType" : 5123,
            "count" : 21,
            "type" : "SCALAR"
        },
        {
            "bufferView" : 28,
            "componentType" : 5126,
            "count" : 471,
            "max" : [
                5.161900043487549,
                1.5844000577926636,
                -8.285400390625
            ],
            "min" : [
                -11.447199821472168,
                -12.463399887084961,
                -24.27560043334961
            ],
            "type" : "VEC3"
        },
        {
            "bufferView" : 29,
            "componentType" : 5126,
            "count" : 471,
            "type" : "VEC3"
        },
        {
            "bufferView" : 30,
            "componentType" : 5126,
            "count" : 471,
            "type" : "VEC2"
        },
        {
            "bufferView" : 31,
            "componentType" : 5123,
            "count" : 471,
            "type" : "SCALAR"
        }
    ],
    "bufferViews" : [
        {
            "buffer" : 0,
            "byteLength" : 288,
            "byteOffset" : 0
        },
        {
            "buffer" : 0,
            "byteLength" : 288,
            "byteOffset" : 288
        },
        {
            "buffer" : 0,
            "byteLength" : 192,
            "byteOffset" : 576
        },
        {
            "buffer" : 0,
            "byteLength" : 72,
            "byteOffset" : 768
        },
        {
            "buffer" : 0,
            "byteLength" : 353880,
            "byteOffset" : 840
        },
        {
            "buffer" : 0,
            "byteLength" : 353880,
            "byteOffset" : 354720
        },
        {
            "buffer" : 0,
            "byteLength" : 235920,
            "byteOffset" : 708600
        },
        {
            "buffer" : 0,
            "byteLength" : 58980,
            "byteOffset" : 944520
        },
        {
            "buffer" : 0,
            "byteLength" : 4320,
            "byteOffset" : 1003500
        },
        {
            "buffer" : 0,
            "byteLength" : 4320,
            "byteOffset" : 1007820
        },
        {
            "buffer" : 0,
            "byteLength" : 2880,
            "byteOffset" : 1012140
        },
        {
            "buffer" : 0,
            "byteLength" : 720,
            "byteOffset" : 1015020
        },
        {
            "buffer" : 0,
            "byteLength" : 9144,
            "byteOffset" : 1015740
        },
        {
            "buffer" : 0,
            "byteLength" : 9144,
            "byteOffset" : 1024884
        },
        {
            "buffer" : 0,
            "byteLength" : 6096,
            "byteOffset" : 1034028
        },
        {
            "buffer" : 0,
            "byteLength" : 1524,
            "byteOffset" : 1040124
        },
        {
            "buffer" : 0,
            "byteLength" : 2861568,
            "byteOffset" : 1041648
        },
        {
            "buffer" : 0,
            "byteLength" : 2861568,
            "byteOffset" : 3903216
        },
        {
            "buffer" : 0,
            "byteLength" : 1907712,
            "byteOffset" : 6764784
        },
        {
            "buffer" : 0,
            "byteLength" : 953856,
            "byteOffset" : 8672496
        },
        {
            "buffer" : 0,
            "byteLength" : 13896,
            "byteOffset" : 9626352
        },
        {
            "buffer" : 0,
            "byteLength" : 13896,
            "byteOffset" : 9640248
        },
        {
            "buffer" : 0,
            "byteLength" : 9264,
            "byteOffset" : 9654144
        },
        {
            "buffer" : 0,
            "byteLength" : 2316,
            "byteOffset" : 9663408
        },
        {
            "buffer" : 0,
            "byteLength" : 252,
            "byteOffset" : 9665724
        },
        {
            "buffer" : 0,
            "byteLength" : 252,
            "byteOffset" : 9665976
        },
        {
            "buffer" : 0,
            "byteLength" : 168,
            "byteOffset" : 9666228
        },
        {
            "buffer" : 0,
            "byteLength" : 42,
            "byteOffset" : 9666396
        },
        {
            "buffer" : 0,
            "byteLength" : 5652,
            "byteOffset" : 9666440
        },
        {
            "buffer" : 0,
            "byteLength" : 5652,
            "byteOffset" : 9672092
        },
        {
            "buffer" : 0,
            "byteLength" : 3768,
            "byteOffset" : 9677744
        },
        {
            "buffer" : 0,
            "byteLength" : 942,
            "byteOffset" : 9681512
        }
    ],
    "buffers" : [
        {
            "byteLength" : 9682456,
            "uri" : "SnowStage.bin"
        }
    ]
}
