{
    "asset" : {
        "generator" : "Khronos glTF Blender I/O v1.1.46",
        "version" : "2.0"
    },
    "scene" : 0,
    "scenes" : [
        {
            "name" : "Scene",
            "nodes" : [
                0,
                1,
                9
            ]
        }
    ],
    "nodes" : [
        {
            "name" : "Light",
            "rotation" : [
                0.16907575726509094,
                0.7558803558349609,
                -0.27217137813568115,
                0.570947527885437
            ],
            "translation" : [
                4.076245307922363,
                5.903861999511719,
                -1.0054539442062378
            ]
        },
        {
            "name" : "Camera",
            "rotation" : [
                0.483536034822464,
                0.33687159419059753,
                -0.20870360732078552,
                0.7804827094078064
            ],
            "translation" : [
                7.358891487121582,
                4.958309173583984,
                6.925790786743164
            ]
        },
        {
            "name" : "Camera.001",
            "rotation" : [
                0.20622064173221588,
                0.4846001863479614,
                0.7822003960609436,
                0.3328636884689331
            ],
            "translation" : [
                -7.287453651428223,
                -7.000919342041016,
                -4.958308696746826
            ]
        },
        {
            "mesh" : 0,
            "name" : "Cube",
            "rotation" : [
                0,
                0.42956864833831787,
                0,
                0.9030343294143677
            ],
            "scale" : [
                -0.3093223571777344,
                -0.03834903612732887,
                -0.04940680041909218
            ],
            "translation" : [
                -0.39966461062431335,
                -0.1301315873861313,
                -0.9060965180397034
            ]
        },
        {
            "mesh" : 1,
            "name" : "Cube.001",
            "rotation" : [
                0,
                0.8581053018569946,
                0,
                0.5134737491607666
            ],
            "scale" : [
                -0.3093223571777344,
                -0.03834903612732887,
                -0.04940680041909218
            ],
            "translation" : [
                0.3810594379901886,
                -0.1301315873861313,
                -0.9060965180397034
            ]
        },
        {
            "name" : "Light.001",
            "rotation" : [
                0.2713005244731903,
                0.17046964168548584,
                0.5748172998428345,
                0.7529417276382446
            ],
            "translation" : [
                -4.086345672607422,
                0.9635835886001587,
                -5.9038615226745605
            ]
        },
        {
            "mesh" : 2,
            "name" : "Sphere",
            "scale" : [
                0.46774229407310486,
                0.46774229407310486,
                0.46774229407310486
            ],
            "translation" : [
                -0.004082126542925835,
                0.005760482512414455,
                -0.37446096539497375
            ]
        },
        {
            "mesh" : 3,
            "name" : "Sphere.001",
            "rotation" : [
                0,
                0,
                -0.04329701513051987,
                0.9990622401237488
            ],
            "scale" : [
                0.3672349452972412,
                0.3672349452972412,
                0.3672349452972412
            ],
            "translation" : [
                0.013728838413953781,
                0.05753777176141739,
                -0.8250043988227844
            ]
        },
        {
            "mesh" : 4,
            "name" : "Sphere.002",
            "rotation" : [
                0,
                0,
                -0.7387282848358154,
                0.6740033030509949
            ],
            "scale" : [
                0.3054185211658478,
                0.3054185211658478,
                0.3054185211658478
            ],
            "translation" : [
                0.013728838413953781,
                0.05753777176141739,
                -1.3230726718902588
            ]
        },
        {
            "children" : [
                2,
                3,
                4,
                5,
                6,
                7,
                8
            ],
            "name" : "Yup2Zup",
            "rotation" : [
                0.7071067690849304,
                0,
                0,
                0.7071067690849304
            ]
        }
    ],
    "animations" : [
        {
            "channels" : [
                {
                    "sampler" : 0,
                    "target" : {
                        "node" : 6,
                        "path" : "translation"
                    }
                },
                {
                    "sampler" : 1,
                    "target" : {
                        "node" : 6,
                        "path" : "rotation"
                    }
                },
                {
                    "sampler" : 2,
                    "target" : {
                        "node" : 6,
                        "path" : "scale"
                    }
                }
            ],
            "name" : "Walk_Body.001_Sphere",
            "samplers" : [
                {
                    "input" : 19,
                    "interpolation" : "LINEAR",
                    "output" : 20
                },
                {
                    "input" : 19,
                    "interpolation" : "LINEAR",
                    "output" : 21
                },
                {
                    "input" : 19,
                    "interpolation" : "LINEAR",
                    "output" : 22
                }
            ]
        },
        {
            "channels" : [
                {
                    "sampler" : 0,
                    "target" : {
                        "node" : 6,
                        "path" : "translation"
                    }
                },
                {
                    "sampler" : 1,
                    "target" : {
                        "node" : 6,
                        "path" : "rotation"
                    }
                },
                {
                    "sampler" : 2,
                    "target" : {
                        "node" : 6,
                        "path" : "scale"
                    }
                },
                {
                    "sampler" : 3,
                    "target" : {
                        "node" : 3,
                        "path" : "translation"
                    }
                },
                {
                    "sampler" : 4,
                    "target" : {
                        "node" : 3,
                        "path" : "rotation"
                    }
                },
                {
                    "sampler" : 5,
                    "target" : {
                        "node" : 3,
                        "path" : "scale"
                    }
                },
                {
                    "sampler" : 6,
                    "target" : {
                        "node" : 4,
                        "path" : "translation"
                    }
                },
                {
                    "sampler" : 7,
                    "target" : {
                        "node" : 4,
                        "path" : "rotation"
                    }
                },
                {
                    "sampler" : 8,
                    "target" : {
                        "node" : 4,
                        "path" : "scale"
                    }
                }
            ],
            "name" : "Walk",
            "samplers" : [
                {
                    "input" : 19,
                    "interpolation" : "LINEAR",
                    "output" : 23
                },
                {
                    "input" : 19,
                    "interpolation" : "LINEAR",
                    "output" : 24
                },
                {
                    "input" : 19,
                    "interpolation" : "LINEAR",
                    "output" : 25
                },
                {
                    "input" : 26,
                    "interpolation" : "LINEAR",
                    "output" : 27
                },
                {
                    "input" : 26,
                    "interpolation" : "LINEAR",
                    "output" : 28
                },
                {
                    "input" : 26,
                    "interpolation" : "LINEAR",
                    "output" : 29
                },
                {
                    "input" : 26,
                    "interpolation" : "LINEAR",
                    "output" : 30
                },
                {
                    "input" : 26,
                    "interpolation" : "LINEAR",
                    "output" : 31
                },
                {
                    "input" : 26,
                    "interpolation" : "LINEAR",
                    "output" : 32
                }
            ]
        }
    ],
    "materials" : [
        {
            "doubleSided" : true,
            "emissiveFactor" : [
                0,
                0,
                0
            ],
            "name" : "Material.001",
            "pbrMetallicRoughness" : {
                "baseColorFactor" : [
                    1,
                    1,
                    1,
                    1
                ],
                "metallicFactor" : 0,
                "roughnessFactor" : 1
            }
        },
        {
            "doubleSided" : true,
            "emissiveFactor" : [
                0,
                0,
                0
            ],
            "name" : "Material.002",
            "pbrMetallicRoughness" : {
                "baseColorTexture" : {
                    "index" : 0,
                    "texCoord" : 0
                },
                "metallicFactor" : 0,
                "roughnessFactor" : 1
            }
        }
    ],
    "meshes" : [
        {
            "name" : "Cube.002",
            "primitives" : [
                {
                    "attributes" : {
                        "POSITION" : 0,
                        "NORMAL" : 1,
                        "TEXCOORD_0" : 2
                    },
                    "indices" : 3
                }
            ]
        },
        {
            "name" : "Cube.003",
            "primitives" : [
                {
                    "attributes" : {
                        "POSITION" : 4,
                        "NORMAL" : 5,
                        "TEXCOORD_0" : 6
                    },
                    "indices" : 3
                }
            ]
        },
        {
            "name" : "Sphere",
            "primitives" : [
                {
                    "attributes" : {
                        "POSITION" : 7,
                        "NORMAL" : 8,
                        "TEXCOORD_0" : 9
                    },
                    "indices" : 10,
                    "material" : 0
                }
            ]
        },
        {
            "name" : "Sphere.001",
            "primitives" : [
                {
                    "attributes" : {
                        "POSITION" : 11,
                        "NORMAL" : 12,
                        "TEXCOORD_0" : 13
                    },
                    "indices" : 14,
                    "material" : 1
                }
            ]
        },
        {
            "name" : "Sphere.004",
            "primitives" : [
                {
                    "attributes" : {
                        "POSITION" : 15,
                        "NORMAL" : 16,
                        "TEXCOORD_0" : 17
                    },
                    "indices" : 18,
                    "material" : 1
                }
            ]
        }
    ],
    "textures" : [
        {
            "source" : 0
        }
    ],
    "images" : [
        {
            "mimeType" : "image/png",
            "name" : "SnowMan",
            "uri" : "SnowMan.png"
        }
    ],
    "accessors" : [
        {
            "bufferView" : 0,
            "componentType" : 5126,
            "count" : 24,
            "max" : [
                2,
                1,
                1
            ],
            "min" : [
                0,
                -1,
                -1
            ],
            "type" : "VEC3"
        },
        {
            "bufferView" : 1,
            "componentType" : 5126,
            "count" : 24,
            "type" : "VEC3"
        },
        {
            "bufferView" : 2,
            "componentType" : 5126,
            "count" : 24,
            "type" : "VEC2"
        },
        {
            "bufferView" : 3,
            "componentType" : 5123,
            "count" : 36,
            "type" : "SCALAR"
        },
        {
            "bufferView" : 4,
            "componentType" : 5126,
            "count" : 24,
            "max" : [
                2,
                1,
                1
            ],
            "min" : [
                0,
                -1,
                -1
            ],
            "type" : "VEC3"
        },
        {
            "bufferView" : 5,
            "componentType" : 5126,
            "count" : 24,
            "type" : "VEC3"
        },
        {
            "bufferView" : 6,
            "componentType" : 5126,
            "count" : 24,
            "type" : "VEC2"
        },
        {
            "bufferView" : 7,
            "componentType" : 5126,
            "count" : 2870,
            "max" : [
                1.000000238418579,
                1.0000003576278687,
                1
            ],
            "min" : [
                -0.9999998211860657,
                -1,
                -1
            ],
            "type" : "VEC3"
        },
        {
            "bufferView" : 8,
            "componentType" : 5126,
            "count" : 2870,
            "type" : "VEC3"
        },
        {
            "bufferView" : 9,
            "componentType" : 5126,
            "count" : 2870,
            "type" : "VEC2"
        },
        {
            "bufferView" : 10,
            "componentType" : 5123,
            "count" : 2880,
            "type" : "SCALAR"
        },
        {
            "bufferView" : 11,
            "componentType" : 5126,
            "count" : 2200,
            "max" : [
                1.000000238418579,
                1.0000003576278687,
                0.7071067690849304
            ],
            "min" : [
                -0.9999998211860657,
                -1,
                -1
            ],
            "type" : "VEC3"
        },
        {
            "bufferView" : 12,
            "componentType" : 5126,
            "count" : 2200,
            "type" : "VEC3"
        },
        {
            "bufferView" : 13,
            "componentType" : 5126,
            "count" : 2200,
            "type" : "VEC2"
        },
        {
            "bufferView" : 14,
            "componentType" : 5123,
            "count" : 2208,
            "type" : "SCALAR"
        },
        {
            "bufferView" : 15,
            "componentType" : 5126,
            "count" : 2200,
            "max" : [
                1.000000238418579,
                1.0000003576278687,
                0.7071067690849304
            ],
            "min" : [
                -0.9999998211860657,
                -1,
                -1
            ],
            "type" : "VEC3"
        },
        {
            "bufferView" : 16,
            "componentType" : 5126,
            "count" : 2200,
            "type" : "VEC3"
        },
        {
            "bufferView" : 17,
            "componentType" : 5126,
            "count" : 2200,
            "type" : "VEC2"
        },
        {
            "bufferView" : 18,
            "componentType" : 5123,
            "count" : 2208,
            "type" : "SCALAR"
        },
        {
            "bufferView" : 19,
            "componentType" : 5126,
            "count" : 41,
            "max" : [
                1.6666666666666667
            ],
            "min" : [
                0
            ],
            "type" : "SCALAR"
        },
        {
            "bufferView" : 20,
            "componentType" : 5126,
            "count" : 41,
            "type" : "VEC3"
        },
        {
            "bufferView" : 21,
            "componentType" : 5126,
            "count" : 41,
            "type" : "VEC4"
        },
        {
            "bufferView" : 22,
            "componentType" : 5126,
            "count" : 41,
            "type" : "VEC3"
        },
        {
            "bufferView" : 23,
            "componentType" : 5126,
            "count" : 41,
            "type" : "VEC3"
        },
        {
            "bufferView" : 24,
            "componentType" : 5126,
            "count" : 41,
            "type" : "VEC4"
        },
        {
            "bufferView" : 25,
            "componentType" : 5126,
            "count" : 41,
            "type" : "VEC3"
        },
        {
            "bufferView" : 26,
            "componentType" : 5126,
            "count" : 40,
            "max" : [
                1.6666666666666667
            ],
            "min" : [
                0.041666666666666664
            ],
            "type" : "SCALAR"
        },
        {
            "bufferView" : 27,
            "componentType" : 5126,
            "count" : 40,
            "type" : "VEC3"
        },
        {
            "bufferView" : 28,
            "componentType" : 5126,
            "count" : 40,
            "type" : "VEC4"
        },
        {
            "bufferView" : 29,
            "componentType" : 5126,
            "count" : 40,
            "type" : "VEC3"
        },
        {
            "bufferView" : 30,
            "componentType" : 5126,
            "count" : 40,
            "type" : "VEC3"
        },
        {
            "bufferView" : 31,
            "componentType" : 5126,
            "count" : 40,
            "type" : "VEC4"
        },
        {
            "bufferView" : 32,
            "componentType" : 5126,
            "count" : 40,
            "type" : "VEC3"
        }
    ],
    "bufferViews" : [
        {
            "buffer" : 0,
            "byteLength" : 288,
            "byteOffset" : 0
        },
        {
            "buffer" : 0,
            "byteLength" : 288,
            "byteOffset" : 288
        },
        {
            "buffer" : 0,
            "byteLength" : 192,
            "byteOffset" : 576
        },
        {
            "buffer" : 0,
            "byteLength" : 72,
            "byteOffset" : 768
        },
        {
            "buffer" : 0,
            "byteLength" : 288,
            "byteOffset" : 840
        },
        {
            "buffer" : 0,
            "byteLength" : 288,
            "byteOffset" : 1128
        },
        {
            "buffer" : 0,
            "byteLength" : 192,
            "byteOffset" : 1416
        },
        {
            "buffer" : 0,
            "byteLength" : 34440,
            "byteOffset" : 1608
        },
        {
            "buffer" : 0,
            "byteLength" : 34440,
            "byteOffset" : 36048
        },
        {
            "buffer" : 0,
            "byteLength" : 22960,
            "byteOffset" : 70488
        },
        {
            "buffer" : 0,
            "byteLength" : 5760,
            "byteOffset" : 93448
        },
        {
            "buffer" : 0,
            "byteLength" : 26400,
            "byteOffset" : 99208
        },
        {
            "buffer" : 0,
            "byteLength" : 26400,
            "byteOffset" : 125608
        },
        {
            "buffer" : 0,
            "byteLength" : 17600,
            "byteOffset" : 152008
        },
        {
            "buffer" : 0,
            "byteLength" : 4416,
            "byteOffset" : 169608
        },
        {
            "buffer" : 0,
            "byteLength" : 26400,
            "byteOffset" : 174024
        },
        {
            "buffer" : 0,
            "byteLength" : 26400,
            "byteOffset" : 200424
        },
        {
            "buffer" : 0,
            "byteLength" : 17600,
            "byteOffset" : 226824
        },
        {
            "buffer" : 0,
            "byteLength" : 4416,
            "byteOffset" : 244424
        },
        {
            "buffer" : 0,
            "byteLength" : 164,
            "byteOffset" : 248840
        },
        {
            "buffer" : 0,
            "byteLength" : 492,
            "byteOffset" : 249004
        },
        {
            "buffer" : 0,
            "byteLength" : 656,
            "byteOffset" : 249496
        },
        {
            "buffer" : 0,
            "byteLength" : 492,
            "byteOffset" : 250152
        },
        {
            "buffer" : 0,
            "byteLength" : 492,
            "byteOffset" : 250644
        },
        {
            "buffer" : 0,
            "byteLength" : 656,
            "byteOffset" : 251136
        },
        {
            "buffer" : 0,
            "byteLength" : 492,
            "byteOffset" : 251792
        },
        {
            "buffer" : 0,
            "byteLength" : 160,
            "byteOffset" : 252284
        },
        {
            "buffer" : 0,
            "byteLength" : 480,
            "byteOffset" : 252444
        },
        {
            "buffer" : 0,
            "byteLength" : 640,
            "byteOffset" : 252924
        },
        {
            "buffer" : 0,
            "byteLength" : 480,
            "byteOffset" : 253564
        },
        {
            "buffer" : 0,
            "byteLength" : 480,
            "byteOffset" : 254044
        },
        {
            "buffer" : 0,
            "byteLength" : 640,
            "byteOffset" : 254524
        },
        {
            "buffer" : 0,
            "byteLength" : 480,
            "byteOffset" : 255164
        }
    ],
    "buffers" : [
        {
            "byteLength" : 255644,
            "uri" : "SnowMan2.bin"
        }
    ]
}
