{
    "asset" : {
        "generator" : "Khronos glTF Blender I/O v1.1.46",
        "version" : "2.0"
    },
    "scene" : 0,
    "scenes" : [
        {
            "name" : "Scene",
            "nodes" : [
                0,
                1,
                2,
                3,
                4,
                5,
                6
            ]
        }
    ],
    "nodes" : [
        {
            "name" : "Light",
            "rotation" : [
                0.16907575726509094,
                0.7558803558349609,
                -0.27217137813568115,
                0.570947527885437
            ],
            "translation" : [
                4.076245307922363,
                5.903861999511719,
                -1.0054539442062378
            ]
        },
        {
            "name" : "Camera",
            "rotation" : [
                0.483536034822464,
                0.33687159419059753,
                -0.20870360732078552,
                0.7804827094078064
            ],
            "translation" : [
                7.358891487121582,
                4.958309173583984,
                6.925790786743164
            ]
        },
        {
            "mesh" : 0,
            "name" : "Sphere",
            "scale" : [
                0.46774229407310486,
                0.46774229407310486,
                0.46774229407310486
            ],
            "translation" : [
                -0.004082126542925835,
                0.37446096539497375,
                0.005760482512414455
            ]
        },
        {
            "mesh" : 1,
            "name" : "Sphere.001",
            "scale" : [
                0.3672349452972412,
                0.3672349452972412,
                0.3672349452972412
            ],
            "translation" : [
                -0.01125678326934576,
                0.8250044584274292,
                0.01588498055934906
            ]
        },
        {
            "mesh" : 2,
            "name" : "Sphere.002",
            "rotation" : [
                0,
                0.7088533639907837,
                0,
                0.7053558826446533
            ],
            "scale" : [
                0.3054185211658478,
                0.3054185211658478,
                0.3054185211658478
            ],
            "translation" : [
                -0.01125678326934576,
                1.3230727910995483,
                0.01588498055934906
            ]
        },
        {
            "mesh" : 3,
            "name" : "Cube",
            "rotation" : [
                -0.1598791480064392,
                0.6423594355583191,
                0.1579262912273407,
                0.7327156662940979
            ],
            "scale" : [
                0.019463954493403435,
                -0.0188941340893507,
                0.34356245398521423
            ],
            "translation" : [
                -0.6798688769340515,
                0.6921510100364685,
                -0.040091101080179214
            ]
        },
        {
            "mesh" : 4,
            "name" : "Cube.001",
            "rotation" : [
                0.033281829208135605,
                0.7026587128639221,
                -0.30516499280929565,
                0.6419013738632202
            ],
            "scale" : [
                -0.023802509531378746,
                0.0172443725168705,
                0.6021310687065125
            ],
            "translation" : [
                0.3937528431415558,
                -0.08801683783531189,
                0.3542215824127197
            ]
        }
    ],
    "materials" : [
        {
            "doubleSided" : true,
            "emissiveFactor" : [
                0,
                0,
                0
            ],
            "name" : "Material",
            "pbrMetallicRoughness" : {
                "baseColorFactor" : [
                    1,
                    1,
                    1,
                    1
                ],
                "metallicFactor" : 0,
                "roughnessFactor" : 1
            }
        },
        {
            "doubleSided" : true,
            "emissiveFactor" : [
                0,
                0,
                0
            ],
            "name" : "Material.001",
            "pbrMetallicRoughness" : {
                "baseColorTexture" : {
                    "index" : 0,
                    "texCoord" : 0
                },
                "metallicFactor" : 0,
                "roughnessFactor" : 1
            }
        }
    ],
    "meshes" : [
        {
            "name" : "Sphere",
            "primitives" : [
                {
                    "attributes" : {
                        "POSITION" : 0,
                        "NORMAL" : 1,
                        "TEXCOORD_0" : 2
                    },
                    "indices" : 3,
                    "material" : 0
                }
            ]
        },
        {
            "name" : "Sphere.001",
            "primitives" : [
                {
                    "attributes" : {
                        "POSITION" : 4,
                        "NORMAL" : 5,
                        "TEXCOORD_0" : 6
                    },
                    "indices" : 7,
                    "material" : 1
                }
            ]
        },
        {
            "name" : "Sphere.004",
            "primitives" : [
                {
                    "attributes" : {
                        "POSITION" : 8,
                        "NORMAL" : 9,
                        "TEXCOORD_0" : 10
                    },
                    "indices" : 11,
                    "material" : 1
                }
            ]
        },
        {
            "name" : "Cube",
            "primitives" : [
                {
                    "attributes" : {
                        "POSITION" : 12,
                        "NORMAL" : 13,
                        "TEXCOORD_0" : 14
                    },
                    "indices" : 15
                }
            ]
        },
        {
            "name" : "Cube.001",
            "primitives" : [
                {
                    "attributes" : {
                        "POSITION" : 16,
                        "NORMAL" : 17,
                        "TEXCOORD_0" : 18
                    },
                    "indices" : 15
                }
            ]
        }
    ],
    "textures" : [
        {
            "source" : 0
        }
    ],
    "images" : [
        {
            "mimeType" : "image/png",
            "name" : "SnowMan",
            "uri" : "SnowMan.png"
        }
    ],
    "accessors" : [
        {
            "bufferView" : 0,
            "componentType" : 5126,
            "count" : 1984,
            "max" : [
                1.000000238418579,
                1,
                1.0000003576278687
            ],
            "min" : [
                -0.9999998211860657,
                -1,
                -1
            ],
            "type" : "VEC3"
        },
        {
            "bufferView" : 1,
            "componentType" : 5126,
            "count" : 1984,
            "type" : "VEC3"
        },
        {
            "bufferView" : 2,
            "componentType" : 5126,
            "count" : 1984,
            "type" : "VEC2"
        },
        {
            "bufferView" : 3,
            "componentType" : 5123,
            "count" : 2880,
            "type" : "SCALAR"
        },
        {
            "bufferView" : 4,
            "componentType" : 5126,
            "count" : 1508,
            "max" : [
                1.000000238418579,
                1,
                1.0000003576278687
            ],
            "min" : [
                -0.9999998211860657,
                -0.7071067690849304,
                -1
            ],
            "type" : "VEC3"
        },
        {
            "bufferView" : 5,
            "componentType" : 5126,
            "count" : 1508,
            "type" : "VEC3"
        },
        {
            "bufferView" : 6,
            "componentType" : 5126,
            "count" : 1508,
            "type" : "VEC2"
        },
        {
            "bufferView" : 7,
            "componentType" : 5123,
            "count" : 2208,
            "type" : "SCALAR"
        },
        {
            "bufferView" : 8,
            "componentType" : 5126,
            "count" : 1504,
            "max" : [
                1.000000238418579,
                1,
                1.0000003576278687
            ],
            "min" : [
                -0.9999998211860657,
                -0.7071067690849304,
                -1
            ],
            "type" : "VEC3"
        },
        {
            "bufferView" : 9,
            "componentType" : 5126,
            "count" : 1504,
            "type" : "VEC3"
        },
        {
            "bufferView" : 10,
            "componentType" : 5126,
            "count" : 1504,
            "type" : "VEC2"
        },
        {
            "bufferView" : 11,
            "componentType" : 5123,
            "count" : 2208,
            "type" : "SCALAR"
        },
        {
            "bufferView" : 12,
            "componentType" : 5126,
            "count" : 24,
            "max" : [
                7.518069744110107,
                -0.4337177276611328,
                1.2453956604003906
            ],
            "min" : [
                3.096254348754883,
                -6.493009567260742,
                -0.16126960515975952
            ],
            "type" : "VEC3"
        },
        {
            "bufferView" : 13,
            "componentType" : 5126,
            "count" : 24,
            "type" : "VEC3"
        },
        {
            "bufferView" : 14,
            "componentType" : 5126,
            "count" : 24,
            "type" : "VEC2"
        },
        {
            "bufferView" : 15,
            "componentType" : 5123,
            "count" : 36,
            "type" : "SCALAR"
        },
        {
            "bufferView" : 16,
            "componentType" : 5126,
            "count" : 24,
            "max" : [
                -2.0639095306396484,
                58.28242492675781,
                -0.07086184620857239
            ],
            "min" : [
                -7.053859710693359,
                51.658592224121094,
                -0.9503704309463501
            ],
            "type" : "VEC3"
        },
        {
            "bufferView" : 17,
            "componentType" : 5126,
            "count" : 24,
            "type" : "VEC3"
        },
        {
            "bufferView" : 18,
            "componentType" : 5126,
            "count" : 24,
            "type" : "VEC2"
        }
    ],
    "bufferViews" : [
        {
            "buffer" : 0,
            "byteLength" : 23808,
            "byteOffset" : 0
        },
        {
            "buffer" : 0,
            "byteLength" : 23808,
            "byteOffset" : 23808
        },
        {
            "buffer" : 0,
            "byteLength" : 15872,
            "byteOffset" : 47616
        },
        {
            "buffer" : 0,
            "byteLength" : 5760,
            "byteOffset" : 63488
        },
        {
            "buffer" : 0,
            "byteLength" : 18096,
            "byteOffset" : 69248
        },
        {
            "buffer" : 0,
            "byteLength" : 18096,
            "byteOffset" : 87344
        },
        {
            "buffer" : 0,
            "byteLength" : 12064,
            "byteOffset" : 105440
        },
        {
            "buffer" : 0,
            "byteLength" : 4416,
            "byteOffset" : 117504
        },
        {
            "buffer" : 0,
            "byteLength" : 18048,
            "byteOffset" : 121920
        },
        {
            "buffer" : 0,
            "byteLength" : 18048,
            "byteOffset" : 139968
        },
        {
            "buffer" : 0,
            "byteLength" : 12032,
            "byteOffset" : 158016
        },
        {
            "buffer" : 0,
            "byteLength" : 4416,
            "byteOffset" : 170048
        },
        {
            "buffer" : 0,
            "byteLength" : 288,
            "byteOffset" : 174464
        },
        {
            "buffer" : 0,
            "byteLength" : 288,
            "byteOffset" : 174752
        },
        {
            "buffer" : 0,
            "byteLength" : 192,
            "byteOffset" : 175040
        },
        {
            "buffer" : 0,
            "byteLength" : 72,
            "byteOffset" : 175232
        },
        {
            "buffer" : 0,
            "byteLength" : 288,
            "byteOffset" : 175304
        },
        {
            "buffer" : 0,
            "byteLength" : 288,
            "byteOffset" : 175592
        },
        {
            "buffer" : 0,
            "byteLength" : 192,
            "byteOffset" : 175880
        }
    ],
    "buffers" : [
        {
            "byteLength" : 176072,
            "uri" : "SnowMan.bin"
        }
    ]
}
