{
    "asset" : {
        "generator" : "Khronos glTF Blender I/O v1.1.46",
        "version" : "2.0"
    },
    "scene" : 0,
    "scenes" : [
        {
            "name" : "Scene",
            "nodes" : [
                0,
                1,
                2,
                3,
                4,
                5,
                6
            ]
        }
    ],
    "nodes" : [
        {
            "name" : "Light",
            "rotation" : [
                0.2713005244731903,
                -0.5748172998428345,
                0.17046962678432465,
                0.7529417276382446
            ],
            "translation" : [
                -4.086345672607422,
                5.9038615226745605,
                0.9635835886001587
            ]
        },
        {
            "name" : "Camera",
            "rotation" : [
                0.20622055232524872,
                -0.7822003960609436,
                0.4846002161502838,
                0.3328636586666107
            ],
            "translation" : [
                -7.287453651428223,
                4.958308696746826,
                -7.000919342041016
            ]
        },
        {
            "mesh" : 0,
            "name" : "Sphere",
            "rotation" : [
                0,
                -0.9988269805908203,
                0,
                0.048421233892440796
            ],
            "scale" : [
                0.46774229407310486,
                0.46774229407310486,
                0.46774229407310486
            ],
            "translation" : [
                -0.020480066537857056,
                0.37446096539497375,
                -0.046622879803180695
            ]
        },
        {
            "mesh" : 1,
            "name" : "Sphere.001",
            "rotation" : [
                0,
                -0.04329701513051987,
                0,
                -0.9990622401237488
            ],
            "scale" : [
                0.3672349452972412,
                0.3672349452972412,
                0.3672349452972412
            ],
            "translation" : [
                0.013728838413953781,
                0.8250043988227844,
                0.05753777176141739
            ]
        },
        {
            "mesh" : 2,
            "name" : "Sphere.002",
            "rotation" : [
                0,
                -0.7387283444404602,
                0,
                -0.6740033030509949
            ],
            "scale" : [
                0.3054185211658478,
                0.3054185211658478,
                0.3054185211658478
            ],
            "translation" : [
                0.013728838413953781,
                1.3230726718902588,
                0.05753777176141739
            ]
        },
        {
            "mesh" : 3,
            "name" : "Cube",
            "rotation" : [
                0,
                0,
                0.4295685589313507,
                0.9030342698097229
            ],
            "scale" : [
                -0.3093223571777344,
                0.04940680041909218,
                0.03834903612732887
            ],
            "translation" : [
                -0.39966461062431335,
                0.9060965180397034,
                -0.1301315873861313
            ]
        },
        {
            "mesh" : 4,
            "name" : "Cube.001",
            "rotation" : [
                0,
                0,
                0.8581053018569946,
                0.5134737491607666
            ],
            "scale" : [
                -0.3093223571777344,
                0.04940680041909218,
                0.03834903612732887
            ],
            "translation" : [
                0.3810594379901886,
                0.9060965180397034,
                -0.1301315873861313
            ]
        }
    ],
    "animations" : [
        {
            "channels" : [
                {
                    "sampler" : 0,
                    "target" : {
                        "node" : 2,
                        "path" : "translation"
                    }
                },
                {
                    "sampler" : 1,
                    "target" : {
                        "node" : 2,
                        "path" : "rotation"
                    }
                },
                {
                    "sampler" : 2,
                    "target" : {
                        "node" : 2,
                        "path" : "scale"
                    }
                },
                {
                    "sampler" : 3,
                    "target" : {
                        "node" : 5,
                        "path" : "translation"
                    }
                },
                {
                    "sampler" : 4,
                    "target" : {
                        "node" : 5,
                        "path" : "rotation"
                    }
                },
                {
                    "sampler" : 5,
                    "target" : {
                        "node" : 5,
                        "path" : "scale"
                    }
                },
                {
                    "sampler" : 6,
                    "target" : {
                        "node" : 6,
                        "path" : "translation"
                    }
                },
                {
                    "sampler" : 7,
                    "target" : {
                        "node" : 6,
                        "path" : "rotation"
                    }
                },
                {
                    "sampler" : 8,
                    "target" : {
                        "node" : 6,
                        "path" : "scale"
                    }
                }
            ],
            "name" : "Walk",
            "samplers" : [
                {
                    "input" : 19,
                    "interpolation" : "LINEAR",
                    "output" : 20
                },
                {
                    "input" : 19,
                    "interpolation" : "LINEAR",
                    "output" : 21
                },
                {
                    "input" : 19,
                    "interpolation" : "LINEAR",
                    "output" : 22
                },
                {
                    "input" : 23,
                    "interpolation" : "LINEAR",
                    "output" : 24
                },
                {
                    "input" : 23,
                    "interpolation" : "LINEAR",
                    "output" : 25
                },
                {
                    "input" : 23,
                    "interpolation" : "LINEAR",
                    "output" : 26
                },
                {
                    "input" : 23,
                    "interpolation" : "LINEAR",
                    "output" : 27
                },
                {
                    "input" : 23,
                    "interpolation" : "LINEAR",
                    "output" : 28
                },
                {
                    "input" : 23,
                    "interpolation" : "LINEAR",
                    "output" : 29
                }
            ]
        },
        {
            "channels" : [
                {
                    "sampler" : 0,
                    "target" : {
                        "node" : 2,
                        "path" : "translation"
                    }
                },
                {
                    "sampler" : 1,
                    "target" : {
                        "node" : 2,
                        "path" : "rotation"
                    }
                },
                {
                    "sampler" : 2,
                    "target" : {
                        "node" : 2,
                        "path" : "scale"
                    }
                }
            ],
            "name" : "Walk_Body.001",
            "samplers" : [
                {
                    "input" : 19,
                    "interpolation" : "LINEAR",
                    "output" : 30
                },
                {
                    "input" : 19,
                    "interpolation" : "LINEAR",
                    "output" : 31
                },
                {
                    "input" : 19,
                    "interpolation" : "LINEAR",
                    "output" : 32
                }
            ]
        }
    ],
    "materials" : [
        {
            "doubleSided" : true,
            "emissiveFactor" : [
                0,
                0,
                0
            ],
            "name" : "Material",
            "pbrMetallicRoughness" : {
                "baseColorFactor" : [
                    1,
                    1,
                    1,
                    1
                ],
                "metallicFactor" : 0,
                "roughnessFactor" : 1
            }
        },
        {
            "doubleSided" : true,
            "emissiveFactor" : [
                0,
                0,
                0
            ],
            "name" : "Material.001",
            "pbrMetallicRoughness" : {
                "baseColorTexture" : {
                    "index" : 0,
                    "texCoord" : 0
                },
                "metallicFactor" : 0,
                "roughnessFactor" : 1
            }
        }
    ],
    "meshes" : [
        {
            "name" : "Sphere",
            "primitives" : [
                {
                    "attributes" : {
                        "POSITION" : 0,
                        "NORMAL" : 1,
                        "TEXCOORD_0" : 2
                    },
                    "indices" : 3,
                    "material" : 0
                }
            ]
        },
        {
            "name" : "Sphere.001",
            "primitives" : [
                {
                    "attributes" : {
                        "POSITION" : 4,
                        "NORMAL" : 5,
                        "TEXCOORD_0" : 6
                    },
                    "indices" : 7,
                    "material" : 1
                }
            ]
        },
        {
            "name" : "Sphere.004",
            "primitives" : [
                {
                    "attributes" : {
                        "POSITION" : 8,
                        "NORMAL" : 9,
                        "TEXCOORD_0" : 10
                    },
                    "indices" : 11,
                    "material" : 1
                }
            ]
        },
        {
            "name" : "Cube.002",
            "primitives" : [
                {
                    "attributes" : {
                        "POSITION" : 12,
                        "NORMAL" : 13,
                        "TEXCOORD_0" : 14
                    },
                    "indices" : 15
                }
            ]
        },
        {
            "name" : "Cube.003",
            "primitives" : [
                {
                    "attributes" : {
                        "POSITION" : 16,
                        "NORMAL" : 17,
                        "TEXCOORD_0" : 18
                    },
                    "indices" : 15
                }
            ]
        }
    ],
    "textures" : [
        {
            "source" : 0
        }
    ],
    "images" : [
        {
            "mimeType" : "image/png",
            "name" : "SnowMan",
            "uri" : "SnowMan.png"
        }
    ],
    "accessors" : [
        {
            "bufferView" : 0,
            "componentType" : 5126,
            "count" : 1984,
            "max" : [
                1.000000238418579,
                1,
                1.0000003576278687
            ],
            "min" : [
                -0.9999998211860657,
                -1,
                -1
            ],
            "type" : "VEC3"
        },
        {
            "bufferView" : 1,
            "componentType" : 5126,
            "count" : 1984,
            "type" : "VEC3"
        },
        {
            "bufferView" : 2,
            "componentType" : 5126,
            "count" : 1984,
            "type" : "VEC2"
        },
        {
            "bufferView" : 3,
            "componentType" : 5123,
            "count" : 2880,
            "type" : "SCALAR"
        },
        {
            "bufferView" : 4,
            "componentType" : 5126,
            "count" : 1508,
            "max" : [
                1.000000238418579,
                1,
                1.0000003576278687
            ],
            "min" : [
                -0.9999998211860657,
                -0.7071067690849304,
                -1
            ],
            "type" : "VEC3"
        },
        {
            "bufferView" : 5,
            "componentType" : 5126,
            "count" : 1508,
            "type" : "VEC3"
        },
        {
            "bufferView" : 6,
            "componentType" : 5126,
            "count" : 1508,
            "type" : "VEC2"
        },
        {
            "bufferView" : 7,
            "componentType" : 5123,
            "count" : 2208,
            "type" : "SCALAR"
        },
        {
            "bufferView" : 8,
            "componentType" : 5126,
            "count" : 1504,
            "max" : [
                1.000000238418579,
                1,
                1.0000003576278687
            ],
            "min" : [
                -0.9999998211860657,
                -0.7071067690849304,
                -1
            ],
            "type" : "VEC3"
        },
        {
            "bufferView" : 9,
            "componentType" : 5126,
            "count" : 1504,
            "type" : "VEC3"
        },
        {
            "bufferView" : 10,
            "componentType" : 5126,
            "count" : 1504,
            "type" : "VEC2"
        },
        {
            "bufferView" : 11,
            "componentType" : 5123,
            "count" : 2208,
            "type" : "SCALAR"
        },
        {
            "bufferView" : 12,
            "componentType" : 5126,
            "count" : 24,
            "max" : [
                2,
                1,
                1
            ],
            "min" : [
                0,
                -1,
                -1
            ],
            "type" : "VEC3"
        },
        {
            "bufferView" : 13,
            "componentType" : 5126,
            "count" : 24,
            "type" : "VEC3"
        },
        {
            "bufferView" : 14,
            "componentType" : 5126,
            "count" : 24,
            "type" : "VEC2"
        },
        {
            "bufferView" : 15,
            "componentType" : 5123,
            "count" : 36,
            "type" : "SCALAR"
        },
        {
            "bufferView" : 16,
            "componentType" : 5126,
            "count" : 24,
            "max" : [
                2,
                1,
                1
            ],
            "min" : [
                0,
                -1,
                -1
            ],
            "type" : "VEC3"
        },
        {
            "bufferView" : 17,
            "componentType" : 5126,
            "count" : 24,
            "type" : "VEC3"
        },
        {
            "bufferView" : 18,
            "componentType" : 5126,
            "count" : 24,
            "type" : "VEC2"
        },
        {
            "bufferView" : 19,
            "componentType" : 5126,
            "count" : 41,
            "max" : [
                1.6666666666666667
            ],
            "min" : [
                0
            ],
            "type" : "SCALAR"
        },
        {
            "bufferView" : 20,
            "componentType" : 5126,
            "count" : 41,
            "type" : "VEC3"
        },
        {
            "bufferView" : 21,
            "componentType" : 5126,
            "count" : 41,
            "type" : "VEC4"
        },
        {
            "bufferView" : 22,
            "componentType" : 5126,
            "count" : 41,
            "type" : "VEC3"
        },
        {
            "bufferView" : 23,
            "componentType" : 5126,
            "count" : 40,
            "max" : [
                1.6666666666666667
            ],
            "min" : [
                0.041666666666666664
            ],
            "type" : "SCALAR"
        },
        {
            "bufferView" : 24,
            "componentType" : 5126,
            "count" : 40,
            "type" : "VEC3"
        },
        {
            "bufferView" : 25,
            "componentType" : 5126,
            "count" : 40,
            "type" : "VEC4"
        },
        {
            "bufferView" : 26,
            "componentType" : 5126,
            "count" : 40,
            "type" : "VEC3"
        },
        {
            "bufferView" : 27,
            "componentType" : 5126,
            "count" : 40,
            "type" : "VEC3"
        },
        {
            "bufferView" : 28,
            "componentType" : 5126,
            "count" : 40,
            "type" : "VEC4"
        },
        {
            "bufferView" : 29,
            "componentType" : 5126,
            "count" : 40,
            "type" : "VEC3"
        },
        {
            "bufferView" : 30,
            "componentType" : 5126,
            "count" : 41,
            "type" : "VEC3"
        },
        {
            "bufferView" : 31,
            "componentType" : 5126,
            "count" : 41,
            "type" : "VEC4"
        },
        {
            "bufferView" : 32,
            "componentType" : 5126,
            "count" : 41,
            "type" : "VEC3"
        }
    ],
    "bufferViews" : [
        {
            "buffer" : 0,
            "byteLength" : 23808,
            "byteOffset" : 0
        },
        {
            "buffer" : 0,
            "byteLength" : 23808,
            "byteOffset" : 23808
        },
        {
            "buffer" : 0,
            "byteLength" : 15872,
            "byteOffset" : 47616
        },
        {
            "buffer" : 0,
            "byteLength" : 5760,
            "byteOffset" : 63488
        },
        {
            "buffer" : 0,
            "byteLength" : 18096,
            "byteOffset" : 69248
        },
        {
            "buffer" : 0,
            "byteLength" : 18096,
            "byteOffset" : 87344
        },
        {
            "buffer" : 0,
            "byteLength" : 12064,
            "byteOffset" : 105440
        },
        {
            "buffer" : 0,
            "byteLength" : 4416,
            "byteOffset" : 117504
        },
        {
            "buffer" : 0,
            "byteLength" : 18048,
            "byteOffset" : 121920
        },
        {
            "buffer" : 0,
            "byteLength" : 18048,
            "byteOffset" : 139968
        },
        {
            "buffer" : 0,
            "byteLength" : 12032,
            "byteOffset" : 158016
        },
        {
            "buffer" : 0,
            "byteLength" : 4416,
            "byteOffset" : 170048
        },
        {
            "buffer" : 0,
            "byteLength" : 288,
            "byteOffset" : 174464
        },
        {
            "buffer" : 0,
            "byteLength" : 288,
            "byteOffset" : 174752
        },
        {
            "buffer" : 0,
            "byteLength" : 192,
            "byteOffset" : 175040
        },
        {
            "buffer" : 0,
            "byteLength" : 72,
            "byteOffset" : 175232
        },
        {
            "buffer" : 0,
            "byteLength" : 288,
            "byteOffset" : 175304
        },
        {
            "buffer" : 0,
            "byteLength" : 288,
            "byteOffset" : 175592
        },
        {
            "buffer" : 0,
            "byteLength" : 192,
            "byteOffset" : 175880
        },
        {
            "buffer" : 0,
            "byteLength" : 164,
            "byteOffset" : 176072
        },
        {
            "buffer" : 0,
            "byteLength" : 492,
            "byteOffset" : 176236
        },
        {
            "buffer" : 0,
            "byteLength" : 656,
            "byteOffset" : 176728
        },
        {
            "buffer" : 0,
            "byteLength" : 492,
            "byteOffset" : 177384
        },
        {
            "buffer" : 0,
            "byteLength" : 160,
            "byteOffset" : 177876
        },
        {
            "buffer" : 0,
            "byteLength" : 480,
            "byteOffset" : 178036
        },
        {
            "buffer" : 0,
            "byteLength" : 640,
            "byteOffset" : 178516
        },
        {
            "buffer" : 0,
            "byteLength" : 480,
            "byteOffset" : 179156
        },
        {
            "buffer" : 0,
            "byteLength" : 480,
            "byteOffset" : 179636
        },
        {
            "buffer" : 0,
            "byteLength" : 640,
            "byteOffset" : 180116
        },
        {
            "buffer" : 0,
            "byteLength" : 480,
            "byteOffset" : 180756
        },
        {
            "buffer" : 0,
            "byteLength" : 492,
            "byteOffset" : 181236
        },
        {
            "buffer" : 0,
            "byteLength" : 656,
            "byteOffset" : 181728
        },
        {
            "buffer" : 0,
            "byteLength" : 492,
            "byteOffset" : 182384
        }
    ],
    "buffers" : [
        {
            "byteLength" : 182876,
            "uri" : "SnowManaAnimation.bin"
        }
    ]
}
